<?xml version="1.0" encoding="UTF-8"?>
<!-- Generator: Adobe Illustrator 26.0.2, SVG Export Plug-In . SVG Version: 6.00 Build 0)  -->
<svg xmlns="http://www.w3.org/2000/svg" xmlns:xlink="http://www.w3.org/1999/xlink" version="1.1" id="Layer_1" x="0px" y="0px" viewBox="0 0 201.7 97.3" style="enable-background:new 0 0 201.7 97.3;" xml:space="preserve">
<style type="text/css">
	.st0{fill:#FFFFFF;}
	.st1{fill:#999999;}
	.st2{fill-rule:evenodd;clip-rule:evenodd;fill:#FFFFFF;}
	.st3{fill-rule:evenodd;clip-rule:evenodd;fill:#BDBEC0;}
</style>
<g>
	<g id="Group_6" transform="translate(0 0)">
		<path id="Path_3" class="st0" d="M138,15.8c-8.9,0-15.6,6.4-15.6,14.8c0,8.6,6.6,15.1,15.4,15.1c4.6-0.2,8.9-2.1,12.1-5.4    c0,0-1.2-1.3-2.3-2.5c-1-1.1-2.7-1.3-4-0.4c-1.6,1.1-3.4,1.7-5.4,1.8c-4.6,0-8.2-3.7-8.2-8.6c-0.2-4.5,3.3-8.3,7.9-8.5    c0.1,0,0.2,0,0.3,0c1.9,0.1,3.8,0.7,5.3,1.9c1.3,0.9,3.1,0.7,4.1-0.5c1.1-1.3,2.3-2.7,2.3-2.7C146.7,17.7,142.5,15.9,138,15.8z"></path>
		<path id="Path_4" class="st0" d="M158.8,31.3V22h5.7c3.2,0,5.1,1.6,5.1,4.6c0,3.1-1.9,4.7-5.1,4.7L158.8,31.3z M168.2,43.8    c0.5,1,1.6,1.7,2.8,1.7h6.6l-6.1-9.7c3.4-1.7,5.3-4.9,5.3-9.4c0-6.5-4.4-10.2-12.2-10.2h-10c-1.7,0-3.1,1.4-3.1,3.1c0,0,0,0,0,0    v23.1c0,1.7,1.4,3.1,3.1,3.1h4.3v-8.3h5.9C164.7,37.2,166.9,41.4,168.2,43.8L168.2,43.8z"></path>
		<path id="Path_5" class="st0" d="M190.1,15.8c-7,0-11.7,3.4-11.7,8.8c0,10.4,15.5,7.3,15.5,12.5c0,1.7-1.5,2.6-3.8,2.6    c-2.8-0.2-5.6-1-8-2.5c-1.4-0.8-3.2-0.4-4.1,1c0,0.1-0.1,0.1-0.1,0.2c-0.7,1.3-1.3,2.6-1.3,2.6c3.8,3,8.5,4.7,13.4,4.7    c6.5,0,11.7-3.1,11.7-8.9c0-10.6-15.5-7.7-15.5-12.8c0-1.4,1.3-2.1,3.2-2.1c2.3,0.2,4.6,0.7,6.7,1.7c1.5,0.7,3.3,0,4-1.5l1.5-3    C198.1,16.9,194.1,15.8,190.1,15.8z"></path>
	</g>
	<path id="Path_6" class="st0" d="M122.4,65.2v-9.3h1.6v9.3H122.4z"></path>
	<path id="Path_7" class="st0" d="M133.1,60.8v4.4h-1.5v-4c0.1-0.9-0.6-1.6-1.4-1.7c-0.1,0-0.2,0-0.3,0c-1.1,0-2,0.8-2,1.9v3.8h-1.5   v-7.1h1.5v1.3c0.5-1,1.5-1.5,2.6-1.4c1.4-0.1,2.5,1,2.6,2.3C133.1,60.5,133.1,60.7,133.1,60.8z"></path>
	<path id="Path_8" class="st0" d="M139.7,58.7l-0.6,1.1c-0.6-0.4-1.3-0.6-2-0.6c-0.6,0-1,0.2-1,0.7c0,1.3,3.8,0.6,3.8,3.2   c0,1.5-1.3,2.1-2.7,2.1c-1,0-2.1-0.3-2.9-1l0.6-1.1c0.7,0.6,1.5,0.9,2.4,0.9c0.7,0,1.2-0.2,1.2-0.8c0-1.5-3.7-0.7-3.7-3.2   c0-1.5,1.2-2,2.6-2C138.2,58,139,58.3,139.7,58.7z"></path>
	<path id="Path_9" class="st0" d="M147.9,65.2h-1.5v-1.4c-0.5,0.9-1.5,1.5-2.5,1.5c-1.4,0.1-2.5-0.9-2.6-2.3c0-0.1,0-0.3,0-0.4v-4.4   h1.5v4c-0.1,0.9,0.5,1.6,1.4,1.7c0.1,0,0.2,0,0.3,0c1.1,0,2-0.9,1.9-2.1c0-0.1,0-0.1,0-0.2v-3.5h1.5L147.9,65.2z"></path>
	<path id="Path_10" class="st0" d="M151.7,59.5c0.5-0.9,1.4-1.5,2.5-1.5v1.5c-1.2-0.2-2.3,0.7-2.4,1.9c0,0,0,0.1,0,0.1v3.7h-1.5   v-7.1h1.5V59.5z"></path>
	<path id="Path_11" class="st0" d="M159.4,64.3c-0.6,0.7-1.5,1-2.3,0.9c-1.2,0.1-2.3-0.8-2.5-2c0-0.1,0-0.2,0-0.2   c0-1.3,1-2.1,2.7-2.1h2.1v-0.2c0-0.9-0.6-1.4-1.7-1.4c-0.8,0-1.5,0.3-2.1,0.7l-0.6-1.1c0.9-0.6,2-0.9,3-0.9c1.8,0,2.9,0.9,2.9,2.5   v4.7h-1.5L159.4,64.3L159.4,64.3z M159.3,62.7V62h-1.9c-1,0-1.5,0.3-1.5,0.9s0.5,1,1.4,1C158.4,64,159.3,63.5,159.3,62.7   L159.3,62.7z"></path>
	<path id="Path_12" class="st0" d="M169.7,60.8v4.4h-1.5v-4c0.1-0.9-0.6-1.6-1.4-1.7c-0.1,0-0.2,0-0.3,0c-1.1,0-2,0.8-2,1.9v3.8   h-1.5v-7.1h1.5v1.3c0.5-1,1.5-1.5,2.6-1.4c1.4-0.1,2.5,1,2.6,2.3C169.7,60.5,169.7,60.7,169.7,60.8z"></path>
	<path id="Path_13" class="st0" d="M177.6,59.2l-0.8,1c-0.5-0.6-1.3-0.8-2-0.8c-1.3,0.1-2.2,1.2-2.1,2.5c0.1,1.1,1,2,2.1,2.1   c0.8,0.1,1.6-0.3,2.1-0.9l0.9,0.9c-0.7,0.9-1.9,1.4-3,1.3c-2,0-3.6-1.7-3.5-3.7c0-1.9,1.6-3.5,3.5-3.5   C175.7,58,176.8,58.4,177.6,59.2z"></path>
	<path id="Path_14" class="st0" d="M185.2,62.2h-5.4c0.2,1.1,1.1,1.8,2.2,1.8c0.8,0,1.5-0.3,2-0.8l0.8,0.9c-0.8,0.8-1.8,1.2-2.9,1.2   c-1.9,0.1-3.5-1.3-3.6-3.2c0-0.1,0-0.3,0-0.4c-0.1-1.9,1.4-3.5,3.3-3.6c0.1,0,0.2,0,0.3,0C184.4,58.1,185.4,59.7,185.2,62.2z    M183.9,61.1c0-1-0.8-1.8-1.8-1.8c0,0-0.1,0-0.1,0c-1.1,0-2,0.8-2.1,1.8H183.9z"></path>
	<path id="Path_15" class="st0" d="M126.4,71.8c1.9,0,3.1,0.9,3.1,2.3c0,1-0.7,1.9-1.6,2.1c1.2,0.1,2.1,1.2,2,2.3   c0,1.6-1.3,2.6-3.4,2.6h-4.1v-9.3H126.4z M124,75.7h2.4c1,0,1.6-0.4,1.6-1.2s-0.6-1.2-1.6-1.2H124V75.7z M124,79.8h2.4   c1.2,0,2-0.5,2-1.3c0-0.8-0.7-1.3-2-1.3H124V79.8z"></path>
	<path id="Path_16" class="st0" d="M133.2,75.5c0.4-0.9,1.4-1.5,2.5-1.5v1.5c-1.2-0.2-2.3,0.7-2.4,1.9c0,0,0,0.1,0,0.1v3.7h-1.5   v-7.1h1.5L133.2,75.5z"></path>
	<path id="Path_17" class="st0" d="M143.7,77.6c0.1,2-1.5,3.7-3.6,3.8c-2,0.1-3.7-1.5-3.8-3.6c-0.1-2,1.5-3.7,3.6-3.8   c0,0,0.1,0,0.1,0c1.9-0.1,3.6,1.3,3.7,3.2C143.7,77.4,143.7,77.5,143.7,77.6z M137.8,77.6c-0.1,1.2,0.8,2.2,2,2.3   c0.1,0,0.1,0,0.2,0c1.3,0.1,2.4-0.9,2.4-2.2c0.1-1.3-0.9-2.4-2.2-2.4c-1.3-0.1-2.4,0.9-2.4,2.2C137.8,77.6,137.8,77.6,137.8,77.6z"></path>
	<path id="Path_18" class="st0" d="M146.9,79.2v2h-1.5v-9.9h1.5v6l3.1-3.2h1.8l-2.6,2.7l2.8,4.4h-1.8l-2.1-3.2L146.9,79.2z"></path>
	<path id="Path_19" class="st0" d="M159.1,78.2h-5.4c0.2,1.1,1.1,1.8,2.2,1.8c0.8,0,1.5-0.3,2-0.8l0.8,0.9c-0.8,0.8-1.8,1.2-2.9,1.2   c-1.9,0.1-3.5-1.3-3.6-3.2c0-0.1,0-0.3,0-0.4c-0.1-1.9,1.4-3.5,3.3-3.6c0.1,0,0.2,0,0.3,0C158.3,74.1,159.3,75.7,159.1,78.2z    M157.8,77.1c0-1-0.8-1.8-1.8-1.8c0,0-0.1,0-0.1,0c-1.1,0-2,0.8-2.1,1.8H157.8z"></path>
	<path id="Path_20" class="st0" d="M162.3,75.5c0.5-0.9,1.4-1.5,2.5-1.5v1.5c-1.2-0.2-2.3,0.6-2.4,1.8c0,0,0,0.1,0,0.1v3.7h-1.5   v-7.1h1.5V75.5z"></path>
	<path id="Path_21" class="st0" d="M170.5,74.7l-0.6,1.1c-0.6-0.4-1.3-0.6-2-0.6c-0.6,0-1,0.2-1,0.7c0,1.3,3.8,0.6,3.8,3.2   c0,1.5-1.3,2.1-2.7,2.1c-1,0-2.1-0.3-2.9-1l0.6-1.1c0.7,0.6,1.5,0.9,2.4,0.9c0.7,0,1.2-0.2,1.2-0.8c0-1.5-3.7-0.7-3.7-3.2   c0-1.5,1.2-2,2.6-2C169,74,169.8,74.3,170.5,74.7z"></path>
</g>
<rect id="Rectangle_16" x="102.6" y="0" class="st1" width="0.9" height="97.3"></rect>
<g id="Group_9" transform="translate(146.065 174.661)">
	<path id="Path_29" class="st2" d="M-94.6-108.1l4.8,6.8c0.8-0.4,1.6-0.9,2.3-1.4c0.1-0.1,0.1-0.1,0.2-0.2c2.2-2.3,3.3-5.4,3.2-8.6   c0-3.2-1.8-5.9-5.2-8.3c0.1,0.6,0.1,1.2,0.1,1.8c0,2.9-1.1,5.7-3.1,7.7L-94.6-108.1z"></path>
	<path id="Path_30" class="st2" d="M-96.1-115.3c0.7-1.6,0.8-3.4,0.2-5c-1-3.2-3.8-4.7-8.3-4.6v14.6l0,10.9c1,0.1,2.1,0.2,3.2,0.2   c1.7,0,3.4-0.1,5.1-0.3l-7.5-10.7C-99.6-110.8-97.2-112.4-96.1-115.3z"></path>
	<path id="Path_31" class="st2" d="M-118-145.3c0-0.6,0-1.1,0.1-1.7c-0.6,0.5-1.2,1-1.8,1.6c-5.5,5.2-8.2,11.4-8.2,18.4   c-0.1,7.3,2.7,14.4,7.9,19.6c2.8,2.9,6.2,5.2,9.9,6.6V-130C-115.2-133.4-118.2-139.2-118-145.3z"></path>
	<path id="Path_32" class="st2" d="M-75.5-154.8l-5.8,6.7c-3.8-3-8.5-4.8-13.3-4.8c-2.4,0-4.8,0.7-6.8,2c-2.1,1.2-3.4,3.4-3.4,5.8   c0,3,1.8,5.4,5.4,7.3c0.4,0.2,3.4,1.3,9,3.3c3.6,1.3,6.9,3,10,5.2c3.8,2.7,6.3,5.5,7.5,8.3c0.7,1.6,1.2,3.3,1.5,5   c0.4,1.6,0.6,3.2,0.6,4.8c0,5.3-1.9,10.4-5.4,14.4c16.2-13,18.8-36.6,5.9-52.8C-72-151.5-73.7-153.2-75.5-154.8L-75.5-154.8z"></path>
</g>
<path id="Path_33" class="st3" d="M45.6,87.6c-10.8,0.1-21.1-4.1-28.7-11.7C9.1,68.6,4.7,58.3,4.9,47.6c0-10.6,4.2-19.6,12.7-27  c7.7-7,17.8-10.9,28.3-10.8c3.3,0,6.7,0.3,9.9,0.9c-21-8.3-44.7,2-52.9,23s2,44.7,23,52.9c11.2,4.4,23.9,3.7,34.5-2.1  C53.8,87.2,51.3,87.6,45.6,87.6z"></path>
</svg>
