<?xml version="1.0" encoding="UTF-8"?>
<!-- Generator: Adobe Illustrator 26.0.2, SVG Export Plug-In . SVG Version: 6.00 Build 0)  -->
<svg xmlns="http://www.w3.org/2000/svg" xmlns:xlink="http://www.w3.org/1999/xlink" version="1.1" id="Layer_1" x="0px" y="0px" viewBox="0 0 342.2 78.8" style="enable-background:new 0 0 342.2 78.8;" xml:space="preserve">
<style type="text/css">
	.st0{fill:#808080;}
	.st1{fill:#262262;}
	.st2{fill:#999999;}
	.st3{fill-rule:evenodd;clip-rule:evenodd;fill:#262262;}
	.st4{fill-rule:evenodd;clip-rule:evenodd;fill:#BDBEC0;}
</style>
<g>
	<path id="Path_37" class="st0" d="M256.9,36.4V23.7h2.1v12.7C259.1,36.4,256.9,36.4,256.9,36.4z"></path>
	<path id="Path_38" class="st0" d="M271.5,30.4v6h-2.1v-5.4c0.1-1.2-0.7-2.2-1.9-2.3c-0.1,0-0.3,0-0.4,0c-1.5,0-2.7,1.2-2.7,2.6v5.1   h-2.1v-9.6h2.1v1.8c0.7-1.3,2.1-2,3.5-1.9c1.8-0.1,3.4,1.3,3.6,3.1C271.5,30,271.5,30.2,271.5,30.4z"></path>
	<path id="Path_39" class="st0" d="M280.5,27.6l-0.8,1.5c-0.8-0.5-1.8-0.8-2.8-0.9c-0.8,0-1.4,0.3-1.4,1c0,1.8,5.1,0.8,5.1,4.3   c0,2-1.7,2.9-3.7,2.9c-1.4,0-2.8-0.4-3.9-1.3l0.8-1.5c0.9,0.8,2,1.2,3.2,1.2c0.9,0,1.6-0.3,1.6-1c0-2-5.1-0.9-5.1-4.3   c0-1.9,1.7-2.8,3.5-2.8C278.3,26.6,279.5,27,280.5,27.6z"></path>
	<path id="Path_40" class="st0" d="M291.5,36.4h-2.1v-1.9c-0.6,1.3-2,2.1-3.4,1.9c-2.2,0-3.5-1.4-3.5-3.7v-6h2.1v5.4   c-0.1,1.2,0.7,2.2,1.9,2.3c0.1,0,0.2,0,0.3,0c1.5,0,2.7-1.3,2.6-2.7c0-0.1,0-0.2,0-0.2v-4.8h2.1L291.5,36.4L291.5,36.4z"></path>
	<path id="Path_41" class="st0" d="M296.6,28.6c0.6-1.3,1.9-2.1,3.3-2v2c-1.6-0.2-3.1,0.9-3.3,2.4c0,0.1,0,0.2,0,0.2v5h-2.1v-9.6   h2.1V28.6z"></path>
	<path id="Path_42" class="st0" d="M307.1,35.2c-0.8,0.9-2,1.4-3.2,1.3c-2.1,0-3.4-1.3-3.4-3c0-1.7,1.3-2.9,3.6-2.9h2.9v-0.3   c0-1.2-0.8-1.9-2.3-1.9c-1,0-2,0.4-2.8,1l-0.9-1.4c1.2-0.8,2.7-1.2,4.1-1.2c2.5,0,3.9,1.3,3.9,3.4l0,6.3h-2L307.1,35.2L307.1,35.2z    M307.1,33v-0.9h-2.6c-1.3,0-2,0.4-2,1.3c0,0.9,0.7,1.4,1.9,1.4C305.8,34.8,306.9,34,307.1,33z"></path>
	<path id="Path_43" class="st0" d="M321.1,30.4v6H319v-5.4c0.1-1.2-0.8-2.2-1.9-2.3c-0.1,0-0.3,0-0.4,0c-1.5,0-2.7,1.2-2.7,2.6v5.1   h-2.1v-9.6h2.1v1.8c0.7-1.3,2.1-2,3.5-1.9c1.9-0.1,3.5,1.3,3.6,3.1C321.1,30,321.1,30.2,321.1,30.4z"></path>
	<path id="Path_44" class="st0" d="M331.8,28.3l-1.1,1.3c-0.7-0.7-1.7-1.1-2.8-1.1c-1.7,0.1-3,1.6-2.8,3.3c0.1,1.5,1.3,2.7,2.8,2.8   c1.1,0.1,2.1-0.4,2.8-1.1l1.1,1.1c-1,1.2-2.5,1.9-4.1,1.8c-2.7,0-4.9-2.2-4.9-4.9s2.2-4.9,4.9-4.9   C329.3,26.6,330.8,27.2,331.8,28.3z"></path>
	<path id="Path_45" class="st0" d="M342.1,32.4h-7.3c0.3,1.4,1.5,2.4,3,2.4c1,0,2-0.4,2.7-1.1l1.1,1.2c-1,1.1-2.5,1.7-4,1.6   c-2.7,0-4.9-2.1-4.9-4.8c0-2.7,2.1-4.9,4.8-4.9C341,26.7,342.4,28.9,342.1,32.4z M340.3,30.8c0-1.4-1.1-2.5-2.5-2.5   c-0.1,0-0.2,0-0.2,0c-1.5-0.1-2.7,1-2.8,2.5H340.3z"></path>
	<path id="Path_46" class="st0" d="M262.4,42c2.6,0,4.2,1.2,4.2,3.2c0,1.4-0.9,2.6-2.2,2.8c1.6,0.2,2.8,1.6,2.7,3.2   c0,2.2-1.7,3.5-4.6,3.5h-5.6V42L262.4,42L262.4,42z M259.1,47.3h3.2c1.3,0,2.2-0.6,2.2-1.7c0-1.1-0.8-1.6-2.2-1.6h-3.2V47.3z    M259.1,52.8h3.2c1.7,0,2.7-0.7,2.7-1.8c0-1.1-1-1.8-2.7-1.8h-3.2V52.8z"></path>
	<path id="Path_47" class="st0" d="M271.6,47c0.6-1.3,1.9-2.1,3.3-2v2c-1.6-0.2-3.1,0.9-3.3,2.4c0,0.1,0,0.2,0,0.2v5h-2.1v-9.6h2.1   V47z"></path>
	<path id="Path_48" class="st0" d="M285.8,49.9c0.1,2.8-2.1,5.1-4.9,5.2s-5.1-2.1-5.2-4.9c-0.1-2.8,2.1-5.1,4.9-5.2c0,0,0.1,0,0.1,0   c2.6-0.2,4.8,1.8,5,4.4C285.8,49.6,285.8,49.7,285.8,49.9z M277.9,49.9c0.1,1.6,1.5,2.9,3.1,2.8c1.6-0.1,2.9-1.5,2.8-3.1   c-0.1-1.5-1.4-2.8-2.9-2.8c-1.6,0-2.9,1.2-3,2.8C277.9,49.7,277.9,49.8,277.9,49.9z"></path>
	<path id="Path_49" class="st0" d="M290.2,52v2.7h-2.1V41.3h2.1v8.1l4.2-4.3h2.4l-3.5,3.7l3.8,5.9h-2.5l-2.8-4.4L290.2,52z"></path>
	<path id="Path_50" class="st0" d="M306.8,50.7h-7.3c0.3,1.4,1.5,2.4,3,2.4c1,0,2-0.4,2.7-1.1l1.1,1.2c-1,1.1-2.5,1.7-4,1.6   c-2.7,0-4.9-2.1-4.9-4.8c0-2.7,2.1-4.9,4.8-4.9C305.6,45,307,47.2,306.8,50.7z M305,49.2c0-1.4-1.1-2.5-2.5-2.5c-0.1,0-0.2,0-0.2,0   c-1.5-0.1-2.7,1-2.8,2.5H305z"></path>
	<path id="Path_51" class="st0" d="M311,47c0.6-1.3,1.9-2.1,3.3-2v2c-1.6-0.2-3.1,0.9-3.3,2.4c0,0.1,0,0.2,0,0.2v5h-2.1v-9.6h2.1V47   z"></path>
	<path id="Path_52" class="st0" d="M322.3,45.9l-0.8,1.5c-0.8-0.5-1.8-0.8-2.8-0.9c-0.8,0-1.4,0.3-1.4,1c0,1.8,5.1,0.8,5.1,4.3   c0,2-1.7,2.9-3.7,2.9c-1.4,0-2.8-0.4-3.9-1.3l0.8-1.5c0.9,0.8,2,1.2,3.2,1.2c0.9,0,1.6-0.3,1.6-1c0-2-5.1-0.9-5.1-4.3   c0-1.9,1.7-2.8,3.5-2.8C320.1,44.9,321.3,45.3,322.3,45.9z"></path>
</g>
<g>
	<g id="Group_10" transform="translate(107.88 33.472)">
		<path id="Path_34" class="st1" d="M26.6-18.9C11.4-18.9,0-8.1,0,6.3C0,20.9,11.2,32,26.2,32c7.4,0,15.3-3.6,20.6-9.1    c0,0-2.1-2.2-4-4.3c-1.8-1.9-4.6-2.2-6.8-0.8c-2.7,1.9-5.9,2.9-9.2,3.1C19,20.9,13,14.5,13,6.2C13-2,19-8.3,26.9-8.3    c3.3,0.1,6.5,1.2,9.1,3.2c2.2,1.6,5.2,1.2,7-0.9c1.9-2.3,3.9-4.6,3.9-4.6C41.4-15.8,34.2-18.8,26.6-18.9z"></path>
		<path id="Path_35" class="st1" d="M62,7.5V-8.4h9.6c5.5,0,8.7,2.6,8.7,7.8c0,5.3-3.2,8-8.7,8H62z M77.9,28.7    c0.9,1.7,2.7,2.8,4.7,2.8h11.2L83.4,15c5.8-2.9,9.1-8.4,9.1-16c0-11.1-7.5-17.4-20.7-17.4h-17c-2.9,0-5.3,2.4-5.3,5.3c0,0,0,0,0,0    v39.3c0,1.4,0.6,2.8,1.6,3.8c1,1,2.4,1.6,3.8,1.6h7.4v-14h10C72,17.4,75.7,24.6,77.9,28.7z"></path>
		<path id="Path_36" class="st1" d="M115.2-18.9c-12,0-19.9,5.8-19.9,15c0,17.7,26.4,12.4,26.4,21.2c0,2.9-2.5,4.4-6.5,4.4    c-3.8,0-9-1.6-13.6-4.3c-2.4-1.4-5.6-0.6-7,1.8c-0.1,0.1-0.1,0.2-0.1,0.3c-1.1,2.3-2.3,4.5-2.3,4.5c6.5,5.1,14.5,7.9,22.8,8    c11.1,0,20-5.3,20-15.3c0-18.1-26.4-13.1-26.4-21.8c0-2.4,2.2-3.6,5.5-3.6c3,0,7.3,1.1,11.5,3c2.6,1.1,5.6,0,6.8-2.6    c1.2-2.5,2.5-5.1,2.5-5.1C128.9-17,122.1-18.9,115.2-18.9z"></path>
	</g>
	<rect id="Rectangle_17" x="94.7" y="0" class="st2" width="0.9" height="77.7"></rect>
	<g id="Group_13" transform="translate(0 20.18)">
		<g id="Group_12" transform="translate(17.165 11.389)">
			<path id="Path_60" class="st3" d="M31.7,25.5l4.6,6.4c0.8-0.4,1.5-0.8,2.2-1.3c0.1-0.1,0.1-0.1,0.2-0.2c2-2.2,3.1-5.2,3.1-8.2     c0-3-1.7-5.6-5-7.9c0.1,0.6,0.1,1.1,0.1,1.7c0,2.7-1.1,5.4-3,7.4L31.7,25.5z"></path>
			<path id="Path_61" class="st3" d="M30.3,18.7c0.7-1.5,0.7-3.2,0.2-4.7c-1-3.1-3.6-4.5-7.9-4.4v13.9l0,10.3c1,0.1,2,0.2,3,0.2     c1.6,0,3.3-0.1,4.9-0.3l-7.1-10.2C27,22.9,29.3,21.4,30.3,18.7z"></path>
			<path id="Path_62" class="st3" d="M9.5-9.9c0-0.5,0-1.1,0.1-1.6C9-11,8.4-10.5,7.8-9.9C2.6-5,0,0.9,0,7.6     c-0.1,7,2.6,13.7,7.5,18.6c2.6,2.8,5.9,4.9,9.5,6.3V4.7C12.1,1.4,9.3-4.1,9.5-9.9z"></path>
			<path id="Path_63" class="st3" d="M49.8-18.9l-5.5,6.3c-3.6-2.9-8-4.5-12.6-4.6c-2.3,0-4.5,0.6-6.4,1.9c-2,1.1-3.2,3.2-3.2,5.6     c0,2.8,1.7,5.1,5.1,6.9c0.4,0.2,3.2,1.2,8.5,3.2c3.4,1.2,6.6,2.9,9.5,5c3.6,2.6,5.9,5.2,7.1,7.8c0.6,1.5,1.1,3.2,1.4,4.8     c0.4,1.5,0.6,3,0.6,4.6c0,5-1.8,9.9-5.1,13.7C64.5,24,67,1.5,54.7-13.9C53.3-15.7,51.6-17.4,49.8-18.9z"></path>
		</g>
		<path id="Path_64" class="st4" d="M43.3,56.8C33.1,56.9,23.3,52.9,16,45.7C8.6,38.8,4.5,29,4.6,18.9c0-10,4-18.6,12.1-25.7    c7.3-6.7,16.9-10.3,26.8-10.2c3.2,0,6.3,0.2,9.5,0.9C33.1-24.1,10.6-14.3,2.7,5.6S4.6,48,24.5,55.9c10.7,4.2,22.7,3.5,32.8-2    C51.1,56.6,48.7,56.8,43.3,56.8z"></path>
	</g>
</g>
</svg>
