<svg xmlns="http://www.w3.org/2000/svg" viewBox="0 0 90 79">
  <style>
    .i{fill-rule:evenodd;clip-rule:evenodd;fill:#262262;}
    .a{fill-rule:evenodd;clip-rule:evenodd;fill:#BDBEC0;}
  </style>
  <g transform="translate(0 20.18)">
    <g transform="translate(17.165 11.389)">
      <path class="i" d="M31.7,25.5l4.6,6.4c0.8-0.4,1.5-0.8,2.2-1.3c0.1-0.1,0.1-0.1,0.2-0.2c2-2.2,3.1-5.2,3.1-8.2c0-3-1.7-5.6-5-7.9c0.1,0.6,0.1,1.1,0.1,1.7c0,2.7-1.1,5.4-3,7.4L31.7,25.5z"/>
      <path class="i" d="M30.3,18.7c0.7-1.5,0.7-3.2,0.2-4.7c-1-3.1-3.6-4.5-7.9-4.4v13.9l0,10.3c1,0.1,2,0.2,3,0.2c1.6,0,3.3-0.1,4.9-0.3l-7.1-10.2C27,22.9,29.3,21.4,30.3,18.7z"/>
      <path class="i" d="M9.5-9.9c0-0.5,0-1.1,0.1-1.6C9-11,8.4-10.5,7.8-9.9C2.6-5,0,0.9,0,7.6c-0.1,7,2.6,13.7,7.5,18.6c2.6,2.8,5.9,4.9,9.5,6.3V4.7C12.1,1.4,9.3-4.1,9.5-9.9z"/>
      <path class="i" d="M49.8-18.9l-5.5,6.3c-3.6-2.9-8-4.5-12.6-4.6c-2.3,0-4.5,0.6-6.4,1.9c-2,1.1-3.2,3.2-3.2,5.6c0,2.8,1.7,5.1,5.1,6.9c0.4,0.2,3.2,1.2,8.5,3.2c3.4,1.2,6.6,2.9,9.5,5c3.6,2.6,5.9,5.2,7.1,7.8c0.6,1.5,1.1,3.2,1.4,4.8c0.4,1.5,0.6,3,0.6,4.6c0,5-1.8,9.9-5.1,13.7C64.5,24,67,1.5,54.7-13.9C53.3-15.7,51.6-17.4,49.8-18.9z"/>
    </g>
    <path class="a" d="M43.3,56.8C33.1,56.9,23.3,52.9,16,45.7C8.6,38.8,4.5,29,4.6,18.9c0-10,4-18.6,12.1-25.7c7.3-6.7,16.9-10.3,26.8-10.2c3.2,0,6.3,0.2,9.5,0.9C33.1-24.1,10.6-14.3,2.7,5.6S4.6,48,24.5,55.9c10.7,4.2,22.7,3.5,32.8-2C51.1,56.6,48.7,56.8,43.3,56.8z"/>
  </g>
</svg>
