<svg xmlns="http://www.w3.org/2000/svg" xmlns:xlink="http://www.w3.org/1999/xlink" width="195" height="94.846" viewBox="0 0 195 94.846">
  <defs>
    <clipPath id="clip-path">
      <rect id="Rectangle_370" data-name="Rectangle 370" width="195" height="94.846" fill="none"/>
    </clipPath>
  </defs>
  <g id="Group_529" data-name="Group 529" transform="translate(0 0)">
    <g id="Group_529-2" data-name="Group 529" transform="translate(0 0)" clip-path="url(#clip-path)">
      <path id="Path_4" data-name="Path 4" d="M55.152,30.585,57.926,32.3s-7.3-.922-8.762-1.889-1.543-1.336-1.543-1.336a8.7,8.7,0,0,1,3.653-1,15.357,15.357,0,0,1,4.472.246ZM74.509,41.858a5.78,5.78,0,0,0-3.486-.307,6.3,6.3,0,0,1-3.8-.268,26.684,26.684,0,0,1-3.356-1.691s-.677,2.729,1.6,3.512,4.313,1.5,5.02,3.014a9.27,9.27,0,0,1-2.11,5.984c-1.555,1.666-9.656,2.662-10.733,2.788-.238-.222-2.218-2.154-1.6-4.446a6.339,6.339,0,0,1,2.217-3.485c-2.366-.98-5.726.98-6.047,4.4l-.082-.03c-1.917-1.681-1.718-2.834-.522-5.239,0,0-2.771.056-3.5,2.047-.284.775-.434,1.237-.511,1.513l-4.775-2.526c-5.751-3.767-7.255-9.278-6.416-16.179A25.689,25.689,0,0,1,39.2,22.332,5.1,5.1,0,0,0,38.149,20.5c-.589-.6-1.595-1.424-2.612-.778-1.54.977.056,4.529.056,4.529-5.7-.856-6.19-8.337-.981-7.856a10.124,10.124,0,0,1,6.84,4.105l1.7-1.345s2.982-1.952,8.931-2.556c0,0,8.475,5,9.382,7.683a8.358,8.358,0,0,1,.382,4.553s7.467,5.509,10.219,8.192,2.441,4.827,2.441,4.827m-1.5,9.2c-1.033,1.962-2.366,1.555-2.366,1.555a15.69,15.69,0,0,0,1.331-3.253,21.345,21.345,0,0,0,.486-2.458L74,46.361a14.709,14.709,0,0,1-1,4.7m-3.324,6.469c0,.1-.008.208-.016.311,0,.026,0,.053-.006.078-.007.084-.017.166-.028.249-.006.045-.012.091-.018.136l0,.007a6,6,0,0,1-.128.623l0,0a6.335,6.335,0,0,1-1.4,2.455,4.355,4.355,0,0,1-1.7,1.191,5.57,5.57,0,0,0,.209-3.788,4.3,4.3,0,0,1-3.026,2.279,5.47,5.47,0,0,1-4.2-1.377s6.458-1.446,9.7-5.578a24.09,24.09,0,0,1,.578,2.512l0,.016a5.966,5.966,0,0,1,.047.887m6.335-15.413a9.546,9.546,0,0,0-.979-3.39,14.194,14.194,0,0,0-2.864-3.492c-1.119-1.045-2.111-1.766-3.488-2.989-1.667-1.48-4.6-3.669-4.6-3.669a11.331,11.331,0,0,0-.3-4.256c-.691-2.358-3.868-5.386-6.894-7.387,1.916-2.13,2.654-6.89.191-9.371a5.51,5.51,0,0,0-3.383-1.682S58.01,8.7,53.407,11.9c-.144-.879-.359-1.9-.667-3.086C50.72,1.007,37.156-2.924,30.982,2.539c6.756-2.979,13.626,1.9,15.147,6.067A39.527,39.527,0,0,0,33.908,5.084c-5.9-.787-15.792-.811-23.438,5.631S4.051,23.281,4.051,23.281a17.858,17.858,0,0,1,6.576-9.05C13.8,11.941,21.11,9.079,26.9,9.314a15.9,15.9,0,0,1,6.759,1.438A10.7,10.7,0,0,0,32.2,10.73c-33.72,3.947-41.652,38.622-20.5,58.4,5.838,5.459,9.757,7.9,16.635,12.256,2.785,1.763,5.922,3.6,8.547,5.459a5.732,5.732,0,0,1,2.7,4.1s.789-3.031-2.382-5.73c-1.849-1.574-3.436-2.593-5.952-4.619A149.173,149.173,0,0,1,18.425,69.449C-3.218,48.9,5.97,19.8,31.391,14.514c0,0,.287-.074.769-.145a5.084,5.084,0,0,0-2.884,2.084,4.681,4.681,0,0,0-.414.8A47.667,47.667,0,0,0,18.481,25.2c-10.867,10.851-8.25,25.523-1.8,34.679,5.547,7.873,21.505,20.467,25.254,23.889C46.1,87.569,45,94.845,45,94.845s5.3-8.258-1.114-15.8c-6.351-7.46-33.662-21.384-25.858-42.506A28.9,28.9,0,0,1,29.25,22.154a8.558,8.558,0,0,0,.956,1.494.407.407,0,0,0-.033.032C18.9,36.746,19.529,46.372,25.292,54.154c4.734,6.393,14.614,13.333,19.357,17.371,8.948,7.617,8.1,16.909,8.1,16.909S59.452,78.382,49.52,68.92c-8.071-8.127-20.339-15.114-22.387-25.513-1.241-6.3,1.679-12.537,4.983-17.807a.73.73,0,0,0,.046-.1c.13.093.261.185.4.272a10.175,10.175,0,0,0,1.364.743c-.4,1.181-.816,2.491-1.232,3.935-4.052,14.059,5.529,20.424,24.379,38.679,0,0,11.943-2.583,13.756-8.019a14.854,14.854,0,0,0,.281-6.244,5.307,5.307,0,0,0,3.129-2.141c1.1-1.471,1.782-10.057,1.782-10.057l-.023-.026c.014-.173.023-.349.023-.531" transform="translate(0 0)" fill="#0064dc"/>
      <path id="Path_5" data-name="Path 5" d="M212.067,87.085h2.91v-5.58c0-2.568-1.472-4.074-3.68-4.074A3.5,3.5,0,0,0,208.4,78.8V77.534h-2.927v9.552H208.4V81.9a1.84,1.84,0,1,1,3.663,0ZM197.042,82.31c0-1.626.924-2.379,1.985-2.379,1.027,0,1.985.753,1.985,2.379a2.091,2.091,0,0,1-2.019,2.379c-1.061,0-1.952-.77-1.952-2.379m6.95,0a4.964,4.964,0,1,0-5,4.913,4.712,4.712,0,0,0,5-4.913m-12.8-5.769a1.591,1.591,0,1,0-1.747-1.574,1.611,1.611,0,0,0,1.747,1.574m-1.472,10.545h2.927V77.534h-2.927Zm-6.471-3.321c0,2.482,1.387,3.321,3.372,3.321h1.49V84.6h-1.044c-.651,0-.891-.24-.891-.8V79.965H188.1V77.534h-1.917V75.206h-2.927v2.327H182.09v2.431h1.163Zm-5.477-1.455a2.132,2.132,0,0,1-2.088,2.362,2.157,2.157,0,0,1-2.088-2.379,2.1,2.1,0,1,1,4.177.017m-7.155-.017c0,3.013,1.866,4.93,4.194,4.93a3.377,3.377,0,0,0,2.961-1.489v1.352H180.7V77.534h-2.927v1.353a3.325,3.325,0,0,0-2.944-1.49c-2.345,0-4.211,1.883-4.211,4.9m-2.907-5.751a1.591,1.591,0,1,0-1.746-1.574,1.612,1.612,0,0,0,1.746,1.574m-1.472,10.545h2.927V77.534h-2.927ZM155.459,82.31a4.578,4.578,0,0,0,4.792,4.913,4.436,4.436,0,0,0,4.588-3.594h-3.116a1.485,1.485,0,0,1-1.523,1.1c-1.044,0-1.763-.822-1.763-2.414s.719-2.413,1.763-2.413a1.508,1.508,0,0,1,1.523,1.095h3.116a4.376,4.376,0,0,0-4.588-3.594,4.587,4.587,0,0,0-4.792,4.913m-7.888,0c0-1.626.924-2.379,1.985-2.379,1.027,0,1.986.753,1.986,2.379a2.091,2.091,0,0,1-2.02,2.379c-1.061,0-1.951-.77-1.951-2.379m6.949,0a4.964,4.964,0,1,0-5,4.913,4.712,4.712,0,0,0,5-4.913m-10.974,2c-.051-3.561-5.221-2.482-5.221-4.006,0-.462.376-.736,1.061-.736a1.259,1.259,0,0,1,1.4,1.078h2.7c-.189-1.883-1.558-3.253-4.023-3.253-2.5,0-3.885,1.335-3.885,2.962,0,3.509,5.2,2.4,5.2,3.936,0,.428-.394.77-1.147.77a1.34,1.34,0,0,1-1.472-1.112H135.28c.137,1.849,1.849,3.269,4.4,3.269,2.4,0,3.868-1.25,3.868-2.91m-9.389,0c-.051-3.561-5.221-2.482-5.221-4.006,0-.462.377-.736,1.061-.736a1.259,1.259,0,0,1,1.4,1.078h2.7c-.189-1.883-1.558-3.253-4.023-3.253-2.5,0-3.885,1.335-3.885,2.962,0,3.509,5.2,2.4,5.2,3.936,0,.428-.394.77-1.147.77a1.341,1.341,0,0,1-1.472-1.112h-2.893c.137,1.849,1.848,3.269,4.4,3.269,2.4,0,3.869-1.25,3.869-2.91M120.926,82.7h-2.961l1.472-4.4Zm1.472,4.382h3.1l-4.348-12.017h-3.389l-4.347,12.017h3.064l.719-2.122h4.484Z" transform="translate(-19.977 -12.924)" fill="#0064dc"/>
      <path id="Path_6" data-name="Path 6" d="M183.926,58.41l1.917-4.587h-3l-.891,4.587Zm-3.305,4.656c-.052-3.56-5.221-2.481-5.221-4,0-.462.376-.737,1.061-.737a1.26,1.26,0,0,1,1.4,1.078h2.7c-.188-1.882-1.557-3.253-4.022-3.253-2.5,0-3.886,1.335-3.886,2.962,0,3.509,5.2,2.4,5.2,3.937,0,.428-.394.77-1.147.77a1.341,1.341,0,0,1-1.472-1.113h-2.893c.138,1.849,1.849,3.27,4.4,3.27,2.4,0,3.869-1.25,3.869-2.911m-11.938-1.66c0-1.644.8-2.122,2.191-2.122h.8v-3.1a3.56,3.56,0,0,0-3,1.695V56.288h-2.927v9.551h2.927Zm-4.627,1.267H160.94a1.555,1.555,0,0,1-1.523.924,1.771,1.771,0,0,1-1.814-1.832h6.625a7.494,7.494,0,0,0,.051-.856,4.5,4.5,0,0,0-4.759-4.759,4.587,4.587,0,0,0-4.827,4.913,4.6,4.6,0,0,0,4.827,4.913,4.465,4.465,0,0,0,4.536-3.3M159.485,58.5a1.651,1.651,0,0,1,1.8,1.644H157.62a1.809,1.809,0,0,1,1.865-1.644M145.3,65.839h2.927V61.833l2.91,4.006h3.629l-4.006-4.759,3.971-4.792h-3.612l-2.893,3.885v-7H145.3Zm-8.435-4.775c0-1.626.924-2.38,1.986-2.38,1.027,0,1.986.754,1.986,2.38a2.091,2.091,0,0,1-2.02,2.379c-1.061,0-1.952-.77-1.952-2.379m6.95,0a4.964,4.964,0,1,0-5,4.913,4.712,4.712,0,0,0,5-4.913m-13.627.342c0-1.644.8-2.122,2.191-2.122h.8v-3.1a3.561,3.561,0,0,0-3,1.695V56.288h-2.927v9.551h2.927Zm-4.646,1.164a2.913,2.913,0,0,0-2.31-2.893,2.728,2.728,0,0,0,2.037-2.739c0-1.9-1.455-3.115-3.9-3.115h-5.409V65.839h5.6c2.533,0,3.988-1.284,3.988-3.269m-3.252-5.135c0,.821-.531,1.249-1.49,1.249h-1.917V56.168H120.8c.959,0,1.49.445,1.49,1.267m.291,4.741c0,.856-.565,1.3-1.541,1.3h-2.157V60.824H121c.975,0,1.574.5,1.574,1.352" transform="translate(-20.424 -9.366)" fill="#0064dc"/>
      <path id="Path_7" data-name="Path 7" d="M202.475,41.342H199.36a1.557,1.557,0,0,1-1.523.924,1.771,1.771,0,0,1-1.815-1.831h6.625a7.321,7.321,0,0,0,.051-.856,4.5,4.5,0,0,0-4.759-4.759,4.587,4.587,0,0,0-4.827,4.913,4.605,4.605,0,0,0,4.827,4.913,4.464,4.464,0,0,0,4.536-3.3m-4.57-4.177a1.651,1.651,0,0,1,1.8,1.644h-3.663a1.811,1.811,0,0,1,1.866-1.644m-15.031,2.568a4.579,4.579,0,0,0,4.793,4.913,4.435,4.435,0,0,0,4.587-3.594h-3.115a1.486,1.486,0,0,1-1.523,1.095c-1.045,0-1.763-.821-1.763-2.413s.718-2.414,1.763-2.414a1.51,1.51,0,0,1,1.523,1.1h3.115a4.375,4.375,0,0,0-4.587-3.594,4.588,4.588,0,0,0-4.793,4.913m-4.313,4.776h2.91V38.928c0-2.567-1.472-4.074-3.68-4.074a3.5,3.5,0,0,0-2.893,1.37V34.957H171.97v9.552H174.9V39.322a1.841,1.841,0,1,1,3.664,0ZM167,39.733a2.132,2.132,0,0,1-2.088,2.362,2.158,2.158,0,0,1-2.088-2.379,2.1,2.1,0,1,1,4.177.017m-7.155-.017c0,3.013,1.866,4.93,4.193,4.93A3.378,3.378,0,0,0,167,43.156v1.353h2.927V34.957H167v1.352a3.324,3.324,0,0,0-2.944-1.489c-2.345,0-4.211,1.883-4.211,4.9m-3.709.359c0-1.643.8-2.122,2.191-2.122h.8v-3.1a3.56,3.56,0,0,0-3,1.695V34.957h-2.927v9.552h2.927Zm-4.965-5.118h-2.926v5.187a1.848,1.848,0,1,1-3.68,0V34.957h-2.911v5.58c0,2.551,1.49,4.074,3.7,4.074a3.481,3.481,0,0,0,2.893-1.4v1.3h2.926Zm-11.036,6.779c-.051-3.561-5.221-2.482-5.221-4.006,0-.462.377-.736,1.062-.736a1.258,1.258,0,0,1,1.4,1.078h2.7c-.188-1.883-1.558-3.252-4.022-3.252-2.5,0-3.886,1.335-3.886,2.961,0,3.51,5.2,2.4,5.2,3.937,0,.428-.394.77-1.147.77a1.342,1.342,0,0,1-1.472-1.112h-2.893c.137,1.848,1.849,3.269,4.4,3.269,2.4,0,3.868-1.25,3.868-2.91M127.59,44.509h2.91V38.928c0-2.567-1.472-4.074-3.68-4.074a3.5,3.5,0,0,0-2.893,1.37V34.957H121v9.552h2.927V39.322a1.84,1.84,0,1,1,3.663,0Zm-11.639,0h2.927V32.492h-2.927Z" transform="translate(-20.424 -5.723)" fill="#0064dc"/>
      <path id="Path_8" data-name="Path 8" d="M160.411,22.676h2.927V17.489a1.841,1.841,0,1,1,3.664,0v5.186h2.91V17.1c0-2.568-1.455-4.074-3.629-4.074a3.524,3.524,0,0,0-2.944,1.387v-4.4h-2.927ZM158.731,19.9c-.051-3.56-5.221-2.481-5.221-4,0-.462.376-.737,1.061-.737a1.259,1.259,0,0,1,1.4,1.078h2.7c-.189-1.883-1.558-3.253-4.023-3.253-2.5,0-3.885,1.335-3.885,2.962,0,3.509,5.2,2.4,5.2,3.937,0,.428-.394.77-1.147.77a1.341,1.341,0,0,1-1.472-1.113h-2.893c.137,1.849,1.849,3.27,4.4,3.27,2.4,0,3.869-1.25,3.869-2.911m-11.167-7.771a1.591,1.591,0,1,0-1.746-1.575,1.612,1.612,0,0,0,1.746,1.575m-1.472,10.544h2.927V13.124h-2.927Zm-6.47-3.32c0,2.481,1.387,3.32,3.372,3.32h1.489V20.194h-1.044c-.651,0-.89-.24-.89-.8V15.555h1.917v-2.43h-1.917V10.8h-2.927v2.328h-1.164v2.43h1.164Zm-3.888-7.224a1.591,1.591,0,1,0-1.746-1.575,1.612,1.612,0,0,0,1.746,1.575m-1.472,10.544h2.927V13.124h-2.927Zm-4.079-4.433c0-1.644.8-2.122,2.191-2.122h.8v-3.1a3.561,3.561,0,0,0-3,1.695V13.125h-2.927v9.551h2.927Zm-4.646,1.164a2.913,2.913,0,0,0-2.31-2.893,2.728,2.728,0,0,0,2.037-2.739c0-1.9-1.455-3.115-3.9-3.115h-5.409V22.676h5.6c2.533,0,3.988-1.284,3.988-3.269m-3.252-5.135c0,.821-.531,1.249-1.49,1.249h-1.917V13H120.8c.959,0,1.49.445,1.49,1.267m.291,4.741c0,.856-.565,1.3-1.541,1.3h-2.157V17.661H121c.975,0,1.574.5,1.574,1.352" transform="translate(-20.424 -1.579)" fill="#0064dc"/>
    </g>
  </g>
</svg>
